<svg width="413" height="318" viewBox="0 0 413 318" fill="none" xmlns="http://www.w3.org/2000/svg">
  <rect width="413" height="318" fill="#171717"/>
  <path d="M317.665 142.897C316.43 142.897 315.425 143.906 315.425 145.147C315.425 146.388 316.43 147.398 317.665 147.398C318.9 147.398 319.905 146.388 319.905 145.147C319.905 143.906 318.9 142.897 317.665 142.897ZM317.665 147.072C316.609 147.072 315.749 146.208 315.749 145.147C315.749 144.086 316.609 143.222 317.665 143.222C318.721 143.222 319.581 144.086 319.581 145.147C319.583 146.208 318.723 147.072 317.665 147.072ZM318.049 145.381C318.004 145.34 317.94 145.299 317.853 145.259C318.087 145.227 318.262 145.149 318.373 145.029C318.486 144.909 318.542 144.764 318.542 144.588C318.542 144.453 318.507 144.328 318.439 144.217C318.371 144.106 318.281 144.026 318.166 143.983C318.053 143.938 317.887 143.917 317.669 143.917H316.583V146.378H316.907V145.284H317.283C317.366 145.284 317.426 145.289 317.464 145.295C317.513 145.308 317.565 145.329 317.611 145.362C317.661 145.394 317.714 145.447 317.776 145.527C317.838 145.606 317.914 145.717 318.01 145.865L318.335 146.378H318.742L318.315 145.709C318.234 145.576 318.145 145.467 318.049 145.381ZM317.607 145.004H316.91V144.189H317.684C317.865 144.189 317.998 144.226 318.083 144.301C318.166 144.376 318.209 144.472 318.209 144.588C318.209 144.667 318.187 144.74 318.143 144.809C318.1 144.877 318.036 144.926 317.953 144.956C317.872 144.986 317.754 145.004 317.607 145.004ZM164.886 162.485H159.09L164.961 138.711H170.757L176.137 153.534L179.798 138.711H185.594L179.723 162.485H173.927L168.547 147.661L164.886 162.485ZM192.274 162.837C197.684 162.837 202.821 159.401 204.182 153.894C205.513 148.506 201.993 144.914 196.701 144.914C191.367 144.914 186.074 148.506 184.743 153.894C183.384 159.399 186.825 162.837 192.274 162.837ZM190.493 153.933C191.024 151.785 192.519 149.481 195.572 149.481C198.586 149.481 198.945 151.785 198.414 153.933C197.874 156.119 196.455 158.424 193.364 158.424C190.234 158.424 189.953 156.119 190.493 153.933ZM210.755 162.485H204.959L209.21 145.265H215.007L214.486 147.374C216.011 145.891 218.079 144.875 220.321 144.875C224.88 144.875 225.955 148.039 224.797 152.724L222.386 162.485H216.59L219 152.724C219.502 150.694 219 149.601 217.183 149.601C215.367 149.601 213.456 151.554 212.875 153.897L210.755 162.485ZM256.765 150.497H251.083C251.275 148.935 249.953 148.506 248.831 148.506C247.711 148.506 246.367 149.091 246.117 150.107C245.52 152.527 257.14 150.068 255.348 157.33C254.345 161.392 250.539 162.875 245.592 162.875C240.53 162.875 237.176 160.961 238.072 156.081H243.83C243.194 158.657 245.434 158.814 246.71 158.814C248.024 158.814 249.27 158.306 249.501 157.369C250.397 153.738 238.68 156.589 240.223 150.341C241.091 146.828 244.24 144.875 249.882 144.875C254.365 144.875 257.236 146.553 256.765 150.497ZM271.425 145.265L270.307 149.794H267.216L264.082 162.485H258.324L261.458 149.794H258.367L259.485 145.265H262.576L263.638 140.963L269.955 138.704L268.336 145.265H271.425ZM282.603 144.914C277.27 144.914 271.977 148.506 270.646 153.894C269.287 159.399 272.728 162.837 278.177 162.837C283.587 162.837 288.724 159.401 290.085 153.894C291.416 148.506 287.896 144.914 282.603 144.914ZM284.317 153.933C283.777 156.119 282.358 158.424 279.267 158.424C276.137 158.424 275.856 156.119 276.395 153.933C276.927 151.785 278.422 149.481 281.475 149.481C284.489 149.481 284.848 151.785 284.317 153.933ZM306.84 144.875C304.639 144.875 302.358 145.501 300.389 147.374L300.91 145.265H295.113L289.338 168.652H295.135L297.17 160.415C297.895 162.172 300.195 162.875 302.397 162.875C307.226 162.875 311.901 158.657 313.078 153.894C314.256 149.132 311.672 144.875 306.84 144.875ZM306.894 153.894C306.335 156.16 304.095 158.19 301.776 158.19C299.457 158.19 298.219 156.16 298.778 153.894C299.337 151.629 301.577 149.599 303.896 149.599C306.215 149.599 307.453 151.629 306.894 153.894ZM167.162 165.083L165.906 170.172C165.27 169.029 164.043 168.648 162.725 168.648C159.781 168.648 156.925 171.243 156.208 174.145C155.491 177.05 157.07 179.62 160.014 179.62C161.332 179.62 162.97 179.191 163.941 178.119L163.63 179.382H167.165L170.695 165.081H167.162V165.083ZM164.925 174.148C164.583 175.528 163.218 176.765 161.806 176.765C160.391 176.765 159.638 175.528 159.979 174.148C160.321 172.767 161.686 171.528 163.098 171.528C164.511 171.528 165.266 172.767 164.925 174.148ZM177.518 168.673C174.266 168.673 171.041 170.864 170.23 174.148C169.4 177.504 171.499 179.598 174.819 179.598C178.117 179.598 181.249 177.504 182.079 174.148C182.889 170.862 180.745 168.673 177.518 168.673ZM178.563 174.171C178.234 175.504 177.368 176.908 175.485 176.908C173.577 176.908 173.405 175.504 173.735 174.171C174.059 172.862 174.97 171.458 176.831 171.458C178.667 171.458 178.885 172.862 178.563 174.171ZM192.957 170.172C192.238 168.982 191.094 168.648 189.776 168.648C186.832 168.648 183.982 171.22 183.265 174.122C182.548 177.026 184.122 179.62 187.066 179.62C188.385 179.62 190.023 179.191 190.998 178.096L190.586 179.761C190.215 181.262 188.756 182.689 187.201 182.689C186.07 182.689 185.287 181.952 185.334 180.713H181.801C181.178 183.902 183.911 185.33 186.738 185.33C190.036 185.33 193.368 182.807 194.222 179.356L196.807 168.883H193.272L192.957 170.172ZM191.982 174.124C191.634 175.528 190.271 176.765 188.856 176.765C187.444 176.765 186.689 175.528 187.037 174.124C187.378 172.744 188.743 171.505 190.155 171.505C191.568 171.505 192.323 172.744 191.982 174.124ZM216.671 168.888L210.426 179.384H206.399L205.989 172.838L202.371 179.384H198.32L197.33 168.888H201.193L201.62 175.742L205.599 168.888H208.331L208.946 175.742L212.782 168.888H216.671ZM222.717 168.65C219.231 168.65 216.116 170.864 215.305 174.148C214.482 177.481 216.427 179.622 220.007 179.622C222.763 179.622 225.319 178.242 226.614 175.481H223.009C222.798 176.242 221.814 177.075 220.566 177.075C219.177 177.075 218.646 175.789 218.945 174.576H227C227.054 174.362 227.137 174.124 227.188 173.91C228.018 170.553 225.874 168.65 222.717 168.65ZM224.05 172.885H219.41C219.41 172.885 220.009 170.932 222.224 170.932C224.368 170.935 224.05 172.885 224.05 172.885ZM238.32 168.911L238.008 170.174C237.373 169.031 236.146 168.65 234.827 168.65C231.883 168.65 229.027 171.245 228.31 174.148C227.593 177.05 229.172 179.622 232.116 179.622C233.434 179.622 235.073 179.193 236.043 178.121L235.732 179.384H239.267L241.853 168.911H238.32ZM237.027 174.148C236.686 175.528 235.32 176.765 233.908 176.765C232.496 176.765 231.741 175.528 232.082 174.148C232.423 172.767 233.789 171.528 235.201 171.528C236.613 171.528 237.368 172.767 237.027 174.148ZM250.546 168.65C250.851 168.65 251.299 168.744 251.546 168.888L250.746 172.124H250.699C250.452 171.696 249.974 171.528 249.432 171.528C248.114 171.528 246.766 172.885 246.454 174.148L245.161 179.384H241.629L244.221 168.888H247.753L247.435 170.174C248.171 169.387 249.249 168.65 250.546 168.65ZM235.322 156.745H226.388L227.506 152.216H236.44L235.322 156.745Z" fill="white"/>
  <path d="M114.1 161.111C116.605 164.245 118.813 167.597 120.675 171.114L109.571 187.214C109.144 187.833 108.3 188.335 107.683 188.335C107.683 188.335 94.2089 188.335 94.2111 188.335C93.5967 188.332 93.0996 187.833 93.0996 187.214V143.599C97.9209 146.178 102.465 149.402 106.574 153.12V172.021L114.1 161.111ZM150.377 129.667H136.903C136.457 129.667 136.457 129.667 136.903 129.667C137.518 129.667 138.017 130.169 138.017 130.788V172.027L129.031 159L137.302 147.01C137.132 146.122 136.942 145.233 136.718 144.332C135.822 140.714 134.533 137.195 132.931 133.808L122.292 149.23L109.571 130.786C109.144 130.167 108.3 129.665 107.683 129.665H94.2111C94.8255 129.667 95.6681 130.167 96.0948 130.786L135.013 187.211C135.44 187.831 136.285 188.332 136.901 188.332H150.375C150.99 188.332 151.489 187.831 151.489 187.211V130.786C151.491 130.169 150.994 129.667 150.377 129.667Z" fill="white"/>
</svg>
